<mxfile host="65bd71144e">
    <diagram id="tvnn7Jadf9OfRJfLJpr_" name="ページ1">
        <mxGraphModel dx="787" dy="2469" grid="1" gridSize="10" guides="1" tooltips="1" connect="1" arrows="1" fold="1" page="1" pageScale="1" pageWidth="827" pageHeight="1169" math="1" shadow="0">
            <root>
                <mxCell id="0"/>
                <mxCell id="1" parent="0"/>
                <mxCell id="2" value="" style="endArrow=classic;html=1;" parent="1" edge="1">
                    <mxGeometry width="50" height="50" relative="1" as="geometry">
                        <mxPoint x="80" y="320" as="sourcePoint"/>
                        <mxPoint x="600" y="320" as="targetPoint"/>
                    </mxGeometry>
                </mxCell>
                <mxCell id="3" value="" style="endArrow=classic;html=1;" parent="1" edge="1">
                    <mxGeometry width="50" height="50" relative="1" as="geometry">
                        <mxPoint x="340" y="360" as="sourcePoint"/>
                        <mxPoint x="340" y="30" as="targetPoint"/>
                    </mxGeometry>
                </mxCell>
                <mxCell id="4" value="" style="curved=1;endArrow=none;html=1;endFill=0;" parent="1" edge="1">
                    <mxGeometry width="50" height="50" relative="1" as="geometry">
                        <mxPoint x="150" y="70" as="sourcePoint"/>
                        <mxPoint x="550" y="50" as="targetPoint"/>
                        <Array as="points">
                            <mxPoint x="210" y="420"/>
                            <mxPoint x="340" y="100"/>
                            <mxPoint x="460" y="240"/>
                        </Array>
                    </mxGeometry>
                </mxCell>
                <mxCell id="5" value="" style="ellipse;whiteSpace=wrap;html=1;aspect=fixed;fillColor=#FF2B0A;strokeColor=none;" parent="1" vertex="1">
                    <mxGeometry x="228" y="302" width="13" height="13" as="geometry"/>
                </mxCell>
                <mxCell id="7" value="" style="ellipse;whiteSpace=wrap;html=1;aspect=fixed;strokeColor=none;fillColor=#0066CC;" parent="1" vertex="1">
                    <mxGeometry x="505" y="116" width="13" height="13" as="geometry"/>
                </mxCell>
                <mxCell id="10" value="" style="endArrow=classic;html=1;fontColor=#0066CC;strokeColor=#0066CC;" parent="1" edge="1">
                    <mxGeometry width="50" height="50" relative="1" as="geometry">
                        <mxPoint x="516" y="79" as="sourcePoint"/>
                        <mxPoint x="474" y="139" as="targetPoint"/>
                    </mxGeometry>
                </mxCell>
                <mxCell id="12" value="&lt;div style=&quot;font-family: &amp;quot;droid sans mono&amp;quot;, monospace, monospace, &amp;quot;droid sans fallback&amp;quot;; font-size: 14px; line-height: 19px;&quot;&gt;&lt;span style=&quot;&quot;&gt;`\frac{\partial E}{\partial w}`&lt;/span&gt;&lt;/div&gt;" style="text;html=1;strokeColor=none;fillColor=none;align=center;verticalAlign=middle;whiteSpace=wrap;rounded=0;fontColor=#0066CC;" vertex="1" parent="1">
                    <mxGeometry x="450" y="80" width="40" height="20" as="geometry"/>
                </mxCell>
                <mxCell id="13" value="最小値" style="text;html=1;strokeColor=none;fillColor=none;align=center;verticalAlign=middle;whiteSpace=wrap;rounded=0;fontSize=22;fontColor=#FF2B0A;" vertex="1" parent="1">
                    <mxGeometry x="186.75" y="330" width="95.5" height="20" as="geometry"/>
                </mxCell>
                <mxCell id="14" value="`w`" style="text;html=1;strokeColor=none;fillColor=none;align=center;verticalAlign=middle;whiteSpace=wrap;rounded=0;fontSize=22;" vertex="1" parent="1">
                    <mxGeometry x="600" y="310" width="40" height="20" as="geometry"/>
                </mxCell>
                <mxCell id="15" value="`E`" style="text;html=1;strokeColor=none;fillColor=none;align=center;verticalAlign=middle;whiteSpace=wrap;rounded=0;fontSize=22;" vertex="1" parent="1">
                    <mxGeometry x="320" width="40" height="20" as="geometry"/>
                </mxCell>
            </root>
        </mxGraphModel>
    </diagram>
</mxfile>